%TF.GenerationSoftware,KiCad,Pcbnew,6.0.6+dfsg-1*%
%TF.CreationDate,2022-07-30T00:05:30-07:00*%
%TF.ProjectId,board,626f6172-642e-46b6-9963-61645f706362,rev?*%
%TF.SameCoordinates,Original*%
%TF.FileFunction,Legend,Top*%
%TF.FilePolarity,Positive*%
%FSLAX46Y46*%
G04 Gerber Fmt 4.6, Leading zero omitted, Abs format (unit mm)*
G04 Created by KiCad (PCBNEW 6.0.6+dfsg-1) date 2022-07-30 00:05:30*
%MOMM*%
%LPD*%
G01*
G04 APERTURE LIST*
%ADD10C,0.150000*%
%ADD11C,0.120000*%
%ADD12C,0.127000*%
G04 APERTURE END LIST*
D10*
X88787976Y-91844761D02*
X88883214Y-91892380D01*
X89073690Y-91892380D01*
X89168928Y-91844761D01*
X89216547Y-91749523D01*
X89216547Y-91701904D01*
X89168928Y-91606666D01*
X89073690Y-91559047D01*
X88930833Y-91559047D01*
X88835595Y-91511428D01*
X88787976Y-91416190D01*
X88787976Y-91368571D01*
X88835595Y-91273333D01*
X88930833Y-91225714D01*
X89073690Y-91225714D01*
X89168928Y-91273333D01*
X89645119Y-91892380D02*
X89645119Y-91225714D01*
X89645119Y-90892380D02*
X89597500Y-90940000D01*
X89645119Y-90987619D01*
X89692738Y-90940000D01*
X89645119Y-90892380D01*
X89645119Y-90987619D01*
X90549880Y-91892380D02*
X90549880Y-90892380D01*
X90549880Y-91844761D02*
X90454642Y-91892380D01*
X90264166Y-91892380D01*
X90168928Y-91844761D01*
X90121309Y-91797142D01*
X90073690Y-91701904D01*
X90073690Y-91416190D01*
X90121309Y-91320952D01*
X90168928Y-91273333D01*
X90264166Y-91225714D01*
X90454642Y-91225714D01*
X90549880Y-91273333D01*
X91407023Y-91844761D02*
X91311785Y-91892380D01*
X91121309Y-91892380D01*
X91026071Y-91844761D01*
X90978452Y-91749523D01*
X90978452Y-91368571D01*
X91026071Y-91273333D01*
X91121309Y-91225714D01*
X91311785Y-91225714D01*
X91407023Y-91273333D01*
X91454642Y-91368571D01*
X91454642Y-91463809D01*
X90978452Y-91559047D01*
X88835595Y-86812380D02*
X88835595Y-85812380D01*
X89264166Y-86812380D02*
X89264166Y-86288571D01*
X89216547Y-86193333D01*
X89121309Y-86145714D01*
X88978452Y-86145714D01*
X88883214Y-86193333D01*
X88835595Y-86240952D01*
X90121309Y-86764761D02*
X90026071Y-86812380D01*
X89835595Y-86812380D01*
X89740357Y-86764761D01*
X89692738Y-86669523D01*
X89692738Y-86288571D01*
X89740357Y-86193333D01*
X89835595Y-86145714D01*
X90026071Y-86145714D01*
X90121309Y-86193333D01*
X90168928Y-86288571D01*
X90168928Y-86383809D01*
X89692738Y-86479047D01*
X91026071Y-86812380D02*
X91026071Y-86288571D01*
X90978452Y-86193333D01*
X90883214Y-86145714D01*
X90692738Y-86145714D01*
X90597500Y-86193333D01*
X91026071Y-86764761D02*
X90930833Y-86812380D01*
X90692738Y-86812380D01*
X90597500Y-86764761D01*
X90549880Y-86669523D01*
X90549880Y-86574285D01*
X90597500Y-86479047D01*
X90692738Y-86431428D01*
X90930833Y-86431428D01*
X91026071Y-86383809D01*
X91930833Y-86812380D02*
X91930833Y-85812380D01*
X91930833Y-86764761D02*
X91835595Y-86812380D01*
X91645119Y-86812380D01*
X91549880Y-86764761D01*
X91502261Y-86717142D01*
X91454642Y-86621904D01*
X91454642Y-86336190D01*
X91502261Y-86240952D01*
X91549880Y-86193333D01*
X91645119Y-86145714D01*
X91835595Y-86145714D01*
X91930833Y-86193333D01*
X88692738Y-81065714D02*
X89073690Y-81065714D01*
X88835595Y-81732380D02*
X88835595Y-80875238D01*
X88883214Y-80780000D01*
X88978452Y-80732380D01*
X89073690Y-80732380D01*
X89407023Y-81732380D02*
X89407023Y-81065714D01*
X89407023Y-81256190D02*
X89454642Y-81160952D01*
X89502261Y-81113333D01*
X89597500Y-81065714D01*
X89692738Y-81065714D01*
X90168928Y-81732380D02*
X90073690Y-81684761D01*
X90026071Y-81637142D01*
X89978452Y-81541904D01*
X89978452Y-81256190D01*
X90026071Y-81160952D01*
X90073690Y-81113333D01*
X90168928Y-81065714D01*
X90311785Y-81065714D01*
X90407023Y-81113333D01*
X90454642Y-81160952D01*
X90502261Y-81256190D01*
X90502261Y-81541904D01*
X90454642Y-81637142D01*
X90407023Y-81684761D01*
X90311785Y-81732380D01*
X90168928Y-81732380D01*
X90930833Y-81065714D02*
X90930833Y-81732380D01*
X90930833Y-81160952D02*
X90978452Y-81113333D01*
X91073690Y-81065714D01*
X91216547Y-81065714D01*
X91311785Y-81113333D01*
X91359404Y-81208571D01*
X91359404Y-81732380D01*
X91692738Y-81065714D02*
X92073690Y-81065714D01*
X91835595Y-80732380D02*
X91835595Y-81589523D01*
X91883214Y-81684761D01*
X91978452Y-81732380D01*
X92073690Y-81732380D01*
X88692738Y-76285714D02*
X89073690Y-76285714D01*
X88835595Y-75952380D02*
X88835595Y-76809523D01*
X88883214Y-76904761D01*
X88978452Y-76952380D01*
X89073690Y-76952380D01*
X89549880Y-76952380D02*
X89454642Y-76904761D01*
X89407023Y-76857142D01*
X89359404Y-76761904D01*
X89359404Y-76476190D01*
X89407023Y-76380952D01*
X89454642Y-76333333D01*
X89549880Y-76285714D01*
X89692738Y-76285714D01*
X89787976Y-76333333D01*
X89835595Y-76380952D01*
X89883214Y-76476190D01*
X89883214Y-76761904D01*
X89835595Y-76857142D01*
X89787976Y-76904761D01*
X89692738Y-76952380D01*
X89549880Y-76952380D01*
X90311785Y-76285714D02*
X90311785Y-77285714D01*
X90311785Y-76333333D02*
X90407023Y-76285714D01*
X90597500Y-76285714D01*
X90692738Y-76333333D01*
X90740357Y-76380952D01*
X90787976Y-76476190D01*
X90787976Y-76761904D01*
X90740357Y-76857142D01*
X90692738Y-76904761D01*
X90597500Y-76952380D01*
X90407023Y-76952380D01*
X90311785Y-76904761D01*
X112047619Y-79997738D02*
X112571428Y-79997738D01*
X112666666Y-79950119D01*
X112714285Y-79854880D01*
X112714285Y-79664404D01*
X112666666Y-79569166D01*
X112095238Y-79997738D02*
X112047619Y-79902500D01*
X112047619Y-79664404D01*
X112095238Y-79569166D01*
X112190476Y-79521547D01*
X112285714Y-79521547D01*
X112380952Y-79569166D01*
X112428571Y-79664404D01*
X112428571Y-79902500D01*
X112476190Y-79997738D01*
X112047619Y-80473928D02*
X112714285Y-80473928D01*
X112523809Y-80473928D02*
X112619047Y-80521547D01*
X112666666Y-80569166D01*
X112714285Y-80664404D01*
X112714285Y-80759642D01*
X112047619Y-81092976D02*
X112714285Y-81092976D01*
X113047619Y-81092976D02*
X113000000Y-81045357D01*
X112952380Y-81092976D01*
X113000000Y-81140595D01*
X113047619Y-81092976D01*
X112952380Y-81092976D01*
X112047619Y-81569166D02*
X112714285Y-81569166D01*
X113047619Y-81569166D02*
X113000000Y-81521547D01*
X112952380Y-81569166D01*
X113000000Y-81616785D01*
X113047619Y-81569166D01*
X112952380Y-81569166D01*
X112047619Y-82045357D02*
X112714285Y-82045357D01*
X112523809Y-82045357D02*
X112619047Y-82092976D01*
X112666666Y-82140595D01*
X112714285Y-82235833D01*
X112714285Y-82331071D01*
X112047619Y-82664404D02*
X112714285Y-82664404D01*
X113047619Y-82664404D02*
X113000000Y-82616785D01*
X112952380Y-82664404D01*
X113000000Y-82712023D01*
X113047619Y-82664404D01*
X112952380Y-82664404D01*
X112714285Y-72192738D02*
X112714285Y-72573690D01*
X112047619Y-72335595D02*
X112904761Y-72335595D01*
X113000000Y-72383214D01*
X113047619Y-72478452D01*
X113047619Y-72573690D01*
X112095238Y-73287976D02*
X112047619Y-73192738D01*
X112047619Y-73002261D01*
X112095238Y-72907023D01*
X112190476Y-72859404D01*
X112571428Y-72859404D01*
X112666666Y-72907023D01*
X112714285Y-73002261D01*
X112714285Y-73192738D01*
X112666666Y-73287976D01*
X112571428Y-73335595D01*
X112476190Y-73335595D01*
X112380952Y-72859404D01*
X112047619Y-74192738D02*
X112571428Y-74192738D01*
X112666666Y-74145119D01*
X112714285Y-74049880D01*
X112714285Y-73859404D01*
X112666666Y-73764166D01*
X112095238Y-74192738D02*
X112047619Y-74097500D01*
X112047619Y-73859404D01*
X112095238Y-73764166D01*
X112190476Y-73716547D01*
X112285714Y-73716547D01*
X112380952Y-73764166D01*
X112428571Y-73859404D01*
X112428571Y-74097500D01*
X112476190Y-74192738D01*
X112714285Y-74526071D02*
X112714285Y-74907023D01*
X113047619Y-74668928D02*
X112190476Y-74668928D01*
X112095238Y-74716547D01*
X112047619Y-74811785D01*
X112047619Y-74907023D01*
X112142857Y-75240357D02*
X112095238Y-75287976D01*
X112047619Y-75240357D01*
X112095238Y-75192738D01*
X112142857Y-75240357D01*
X112047619Y-75240357D01*
X110714285Y-72335595D02*
X109714285Y-72335595D01*
X110666666Y-72335595D02*
X110714285Y-72430833D01*
X110714285Y-72621309D01*
X110666666Y-72716547D01*
X110619047Y-72764166D01*
X110523809Y-72811785D01*
X110238095Y-72811785D01*
X110142857Y-72764166D01*
X110095238Y-72716547D01*
X110047619Y-72621309D01*
X110047619Y-72430833D01*
X110095238Y-72335595D01*
X110047619Y-73240357D02*
X110714285Y-73240357D01*
X110523809Y-73240357D02*
X110619047Y-73287976D01*
X110666666Y-73335595D01*
X110714285Y-73430833D01*
X110714285Y-73526071D01*
X110095238Y-74240357D02*
X110047619Y-74145119D01*
X110047619Y-73954642D01*
X110095238Y-73859404D01*
X110190476Y-73811785D01*
X110571428Y-73811785D01*
X110666666Y-73859404D01*
X110714285Y-73954642D01*
X110714285Y-74145119D01*
X110666666Y-74240357D01*
X110571428Y-74287976D01*
X110476190Y-74287976D01*
X110380952Y-73811785D01*
X110095238Y-74668928D02*
X110047619Y-74764166D01*
X110047619Y-74954642D01*
X110095238Y-75049880D01*
X110190476Y-75097500D01*
X110238095Y-75097500D01*
X110333333Y-75049880D01*
X110380952Y-74954642D01*
X110380952Y-74811785D01*
X110428571Y-74716547D01*
X110523809Y-74668928D01*
X110571428Y-74668928D01*
X110666666Y-74716547D01*
X110714285Y-74811785D01*
X110714285Y-74954642D01*
X110666666Y-75049880D01*
X110095238Y-75907023D02*
X110047619Y-75811785D01*
X110047619Y-75621309D01*
X110095238Y-75526071D01*
X110190476Y-75478452D01*
X110571428Y-75478452D01*
X110666666Y-75526071D01*
X110714285Y-75621309D01*
X110714285Y-75811785D01*
X110666666Y-75907023D01*
X110571428Y-75954642D01*
X110476190Y-75954642D01*
X110380952Y-75478452D01*
X110714285Y-76383214D02*
X110047619Y-76383214D01*
X110619047Y-76383214D02*
X110666666Y-76430833D01*
X110714285Y-76526071D01*
X110714285Y-76668928D01*
X110666666Y-76764166D01*
X110571428Y-76811785D01*
X110047619Y-76811785D01*
X110714285Y-77145119D02*
X110714285Y-77526071D01*
X111047619Y-77287976D02*
X110190476Y-77287976D01*
X110095238Y-77335595D01*
X110047619Y-77430833D01*
X110047619Y-77526071D01*
X110095238Y-77811785D02*
X110047619Y-77907023D01*
X110047619Y-78097500D01*
X110095238Y-78192738D01*
X110190476Y-78240357D01*
X110238095Y-78240357D01*
X110333333Y-78192738D01*
X110380952Y-78097500D01*
X110380952Y-77954642D01*
X110428571Y-77859404D01*
X110523809Y-77811785D01*
X110571428Y-77811785D01*
X110666666Y-77859404D01*
X110714285Y-77954642D01*
X110714285Y-78097500D01*
X110666666Y-78192738D01*
X114047619Y-72335595D02*
X115047619Y-72335595D01*
X115047619Y-72573690D01*
X115000000Y-72716547D01*
X114904761Y-72811785D01*
X114809523Y-72859404D01*
X114619047Y-72907023D01*
X114476190Y-72907023D01*
X114285714Y-72859404D01*
X114190476Y-72811785D01*
X114095238Y-72716547D01*
X114047619Y-72573690D01*
X114047619Y-72335595D01*
X114095238Y-73716547D02*
X114047619Y-73621309D01*
X114047619Y-73430833D01*
X114095238Y-73335595D01*
X114190476Y-73287976D01*
X114571428Y-73287976D01*
X114666666Y-73335595D01*
X114714285Y-73430833D01*
X114714285Y-73621309D01*
X114666666Y-73716547D01*
X114571428Y-73764166D01*
X114476190Y-73764166D01*
X114380952Y-73287976D01*
X114095238Y-74573690D02*
X114047619Y-74478452D01*
X114047619Y-74287976D01*
X114095238Y-74192738D01*
X114190476Y-74145119D01*
X114571428Y-74145119D01*
X114666666Y-74192738D01*
X114714285Y-74287976D01*
X114714285Y-74478452D01*
X114666666Y-74573690D01*
X114571428Y-74621309D01*
X114476190Y-74621309D01*
X114380952Y-74145119D01*
X114714285Y-75049880D02*
X113714285Y-75049880D01*
X114666666Y-75049880D02*
X114714285Y-75145119D01*
X114714285Y-75335595D01*
X114666666Y-75430833D01*
X114619047Y-75478452D01*
X114523809Y-75526071D01*
X114238095Y-75526071D01*
X114142857Y-75478452D01*
X114095238Y-75430833D01*
X114047619Y-75335595D01*
X114047619Y-75145119D01*
X114095238Y-75049880D01*
X114095238Y-75907023D02*
X114047619Y-76002261D01*
X114047619Y-76192738D01*
X114095238Y-76287976D01*
X114190476Y-76335595D01*
X114238095Y-76335595D01*
X114333333Y-76287976D01*
X114380952Y-76192738D01*
X114380952Y-76049880D01*
X114428571Y-75954642D01*
X114523809Y-75907023D01*
X114571428Y-75907023D01*
X114666666Y-75954642D01*
X114714285Y-76049880D01*
X114714285Y-76192738D01*
X114666666Y-76287976D01*
X114095238Y-77145119D02*
X114047619Y-77049880D01*
X114047619Y-76859404D01*
X114095238Y-76764166D01*
X114190476Y-76716547D01*
X114571428Y-76716547D01*
X114666666Y-76764166D01*
X114714285Y-76859404D01*
X114714285Y-77049880D01*
X114666666Y-77145119D01*
X114571428Y-77192738D01*
X114476190Y-77192738D01*
X114380952Y-76716547D01*
X114047619Y-78049880D02*
X114571428Y-78049880D01*
X114666666Y-78002261D01*
X114714285Y-77907023D01*
X114714285Y-77716547D01*
X114666666Y-77621309D01*
X114095238Y-78049880D02*
X114047619Y-77954642D01*
X114047619Y-77716547D01*
X114095238Y-77621309D01*
X114190476Y-77573690D01*
X114285714Y-77573690D01*
X114380952Y-77621309D01*
X114428571Y-77716547D01*
X114428571Y-77954642D01*
X114476190Y-78049880D01*
X114047619Y-79287976D02*
X115047619Y-79287976D01*
X114333333Y-79621309D01*
X115047619Y-79954642D01*
X114047619Y-79954642D01*
X114095238Y-80811785D02*
X114047619Y-80716547D01*
X114047619Y-80526071D01*
X114095238Y-80430833D01*
X114190476Y-80383214D01*
X114571428Y-80383214D01*
X114666666Y-80430833D01*
X114714285Y-80526071D01*
X114714285Y-80716547D01*
X114666666Y-80811785D01*
X114571428Y-80859404D01*
X114476190Y-80859404D01*
X114380952Y-80383214D01*
X114714285Y-81145119D02*
X114714285Y-81526071D01*
X115047619Y-81287976D02*
X114190476Y-81287976D01*
X114095238Y-81335595D01*
X114047619Y-81430833D01*
X114047619Y-81526071D01*
X114047619Y-81859404D02*
X114714285Y-81859404D01*
X114523809Y-81859404D02*
X114619047Y-81907023D01*
X114666666Y-81954642D01*
X114714285Y-82049880D01*
X114714285Y-82145119D01*
X114047619Y-82621309D02*
X114095238Y-82526071D01*
X114142857Y-82478452D01*
X114238095Y-82430833D01*
X114523809Y-82430833D01*
X114619047Y-82478452D01*
X114666666Y-82526071D01*
X114714285Y-82621309D01*
X114714285Y-82764166D01*
X114666666Y-82859404D01*
X114619047Y-82907023D01*
X114523809Y-82954642D01*
X114238095Y-82954642D01*
X114142857Y-82907023D01*
X114095238Y-82859404D01*
X114047619Y-82764166D01*
X114047619Y-82621309D01*
X108142857Y-72907023D02*
X108095238Y-72859404D01*
X108047619Y-72716547D01*
X108047619Y-72621309D01*
X108095238Y-72478452D01*
X108190476Y-72383214D01*
X108285714Y-72335595D01*
X108476190Y-72287976D01*
X108619047Y-72287976D01*
X108809523Y-72335595D01*
X108904761Y-72383214D01*
X109000000Y-72478452D01*
X109047619Y-72621309D01*
X109047619Y-72716547D01*
X109000000Y-72859404D01*
X108952380Y-72907023D01*
X107952380Y-74002261D02*
X108000000Y-73907023D01*
X108095238Y-73811785D01*
X108238095Y-73668928D01*
X108285714Y-73573690D01*
X108285714Y-73478452D01*
X108047619Y-73526071D02*
X108095238Y-73430833D01*
X108190476Y-73335595D01*
X108380952Y-73287976D01*
X108714285Y-73287976D01*
X108904761Y-73335595D01*
X109000000Y-73430833D01*
X109047619Y-73526071D01*
X109047619Y-73716547D01*
X109000000Y-73811785D01*
X108904761Y-73907023D01*
X108714285Y-73954642D01*
X108380952Y-73954642D01*
X108190476Y-73907023D01*
X108095238Y-73811785D01*
X108047619Y-73716547D01*
X108047619Y-73526071D01*
X108428571Y-74383214D02*
X108428571Y-75145119D01*
X108619047Y-75764166D02*
X108666666Y-75668928D01*
X108714285Y-75621309D01*
X108809523Y-75573690D01*
X108857142Y-75573690D01*
X108952380Y-75621309D01*
X109000000Y-75668928D01*
X109047619Y-75764166D01*
X109047619Y-75954642D01*
X109000000Y-76049880D01*
X108952380Y-76097500D01*
X108857142Y-76145119D01*
X108809523Y-76145119D01*
X108714285Y-76097500D01*
X108666666Y-76049880D01*
X108619047Y-75954642D01*
X108619047Y-75764166D01*
X108571428Y-75668928D01*
X108523809Y-75621309D01*
X108428571Y-75573690D01*
X108238095Y-75573690D01*
X108142857Y-75621309D01*
X108095238Y-75668928D01*
X108047619Y-75764166D01*
X108047619Y-75954642D01*
X108095238Y-76049880D01*
X108142857Y-76097500D01*
X108238095Y-76145119D01*
X108428571Y-76145119D01*
X108523809Y-76097500D01*
X108571428Y-76049880D01*
X108619047Y-75954642D01*
X109047619Y-76764166D02*
X109047619Y-76859404D01*
X109000000Y-76954642D01*
X108952380Y-77002261D01*
X108857142Y-77049880D01*
X108666666Y-77097500D01*
X108428571Y-77097500D01*
X108238095Y-77049880D01*
X108142857Y-77002261D01*
X108095238Y-76954642D01*
X108047619Y-76859404D01*
X108047619Y-76764166D01*
X108095238Y-76668928D01*
X108142857Y-76621309D01*
X108238095Y-76573690D01*
X108428571Y-76526071D01*
X108666666Y-76526071D01*
X108857142Y-76573690D01*
X108952380Y-76621309D01*
X109000000Y-76668928D01*
X109047619Y-76764166D01*
X108714285Y-78145119D02*
X108714285Y-78526071D01*
X109047619Y-78287976D02*
X108190476Y-78287976D01*
X108095238Y-78335595D01*
X108047619Y-78430833D01*
X108047619Y-78526071D01*
X108095238Y-79240357D02*
X108047619Y-79145119D01*
X108047619Y-78954642D01*
X108095238Y-78859404D01*
X108190476Y-78811785D01*
X108571428Y-78811785D01*
X108666666Y-78859404D01*
X108714285Y-78954642D01*
X108714285Y-79145119D01*
X108666666Y-79240357D01*
X108571428Y-79287976D01*
X108476190Y-79287976D01*
X108380952Y-78811785D01*
X108047619Y-79716547D02*
X108714285Y-79716547D01*
X108523809Y-79716547D02*
X108619047Y-79764166D01*
X108666666Y-79811785D01*
X108714285Y-79907023D01*
X108714285Y-80002261D01*
X108047619Y-80335595D02*
X108714285Y-80335595D01*
X108619047Y-80335595D02*
X108666666Y-80383214D01*
X108714285Y-80478452D01*
X108714285Y-80621309D01*
X108666666Y-80716547D01*
X108571428Y-80764166D01*
X108047619Y-80764166D01*
X108571428Y-80764166D02*
X108666666Y-80811785D01*
X108714285Y-80907023D01*
X108714285Y-81049880D01*
X108666666Y-81145119D01*
X108571428Y-81192738D01*
X108047619Y-81192738D01*
X108047619Y-81668928D02*
X108714285Y-81668928D01*
X109047619Y-81668928D02*
X109000000Y-81621309D01*
X108952380Y-81668928D01*
X109000000Y-81716547D01*
X109047619Y-81668928D01*
X108952380Y-81668928D01*
X108714285Y-82145119D02*
X108047619Y-82145119D01*
X108619047Y-82145119D02*
X108666666Y-82192738D01*
X108714285Y-82287976D01*
X108714285Y-82430833D01*
X108666666Y-82526071D01*
X108571428Y-82573690D01*
X108047619Y-82573690D01*
X108047619Y-83478452D02*
X108571428Y-83478452D01*
X108666666Y-83430833D01*
X108714285Y-83335595D01*
X108714285Y-83145119D01*
X108666666Y-83049880D01*
X108095238Y-83478452D02*
X108047619Y-83383214D01*
X108047619Y-83145119D01*
X108095238Y-83049880D01*
X108190476Y-83002261D01*
X108285714Y-83002261D01*
X108380952Y-83049880D01*
X108428571Y-83145119D01*
X108428571Y-83383214D01*
X108476190Y-83478452D01*
X108047619Y-84097500D02*
X108095238Y-84002261D01*
X108190476Y-83954642D01*
X109047619Y-83954642D01*
X108714285Y-85145119D02*
X108047619Y-85383214D01*
X108714285Y-85621309D01*
X108047619Y-86526071D02*
X108047619Y-85954642D01*
X108047619Y-86240357D02*
X109047619Y-86240357D01*
X108904761Y-86145119D01*
X108809523Y-86049880D01*
X108761904Y-85954642D01*
X108142857Y-86954642D02*
X108095238Y-87002261D01*
X108047619Y-86954642D01*
X108095238Y-86907023D01*
X108142857Y-86954642D01*
X108047619Y-86954642D01*
X109047619Y-87621309D02*
X109047619Y-87716547D01*
X109000000Y-87811785D01*
X108952380Y-87859404D01*
X108857142Y-87907023D01*
X108666666Y-87954642D01*
X108428571Y-87954642D01*
X108238095Y-87907023D01*
X108142857Y-87859404D01*
X108095238Y-87811785D01*
X108047619Y-87716547D01*
X108047619Y-87621309D01*
X108095238Y-87526071D01*
X108142857Y-87478452D01*
X108238095Y-87430833D01*
X108428571Y-87383214D01*
X108666666Y-87383214D01*
X108857142Y-87430833D01*
X108952380Y-87478452D01*
X109000000Y-87526071D01*
X109047619Y-87621309D01*
%TO.C,REF1*%
X92952380Y-69952380D02*
X92619047Y-69476190D01*
X92380952Y-69952380D02*
X92380952Y-68952380D01*
X92761904Y-68952380D01*
X92857142Y-69000000D01*
X92904761Y-69047619D01*
X92952380Y-69142857D01*
X92952380Y-69285714D01*
X92904761Y-69380952D01*
X92857142Y-69428571D01*
X92761904Y-69476190D01*
X92380952Y-69476190D01*
X93380952Y-69428571D02*
X93714285Y-69428571D01*
X93857142Y-69952380D02*
X93380952Y-69952380D01*
X93380952Y-68952380D01*
X93857142Y-68952380D01*
X94619047Y-69428571D02*
X94285714Y-69428571D01*
X94285714Y-69952380D02*
X94285714Y-68952380D01*
X94761904Y-68952380D01*
X95666666Y-69952380D02*
X95095238Y-69952380D01*
X95380952Y-69952380D02*
X95380952Y-68952380D01*
X95285714Y-69095238D01*
X95190476Y-69190476D01*
X95095238Y-69238095D01*
%TO.C,REF2*%
X110952380Y-94452380D02*
X110619047Y-93976190D01*
X110380952Y-94452380D02*
X110380952Y-93452380D01*
X110761904Y-93452380D01*
X110857142Y-93500000D01*
X110904761Y-93547619D01*
X110952380Y-93642857D01*
X110952380Y-93785714D01*
X110904761Y-93880952D01*
X110857142Y-93928571D01*
X110761904Y-93976190D01*
X110380952Y-93976190D01*
X111380952Y-93928571D02*
X111714285Y-93928571D01*
X111857142Y-94452380D02*
X111380952Y-94452380D01*
X111380952Y-93452380D01*
X111857142Y-93452380D01*
X112619047Y-93928571D02*
X112285714Y-93928571D01*
X112285714Y-94452380D02*
X112285714Y-93452380D01*
X112761904Y-93452380D01*
X113095238Y-93547619D02*
X113142857Y-93500000D01*
X113238095Y-93452380D01*
X113476190Y-93452380D01*
X113571428Y-93500000D01*
X113619047Y-93547619D01*
X113666666Y-93642857D01*
X113666666Y-93738095D01*
X113619047Y-93880952D01*
X113047619Y-94452380D01*
X113666666Y-94452380D01*
%TO.C,U2*%
X107841904Y-146407619D02*
X107841904Y-145598095D01*
X107794285Y-145502857D01*
X107746666Y-145455238D01*
X107651428Y-145407619D01*
X107460952Y-145407619D01*
X107365714Y-145455238D01*
X107318095Y-145502857D01*
X107270476Y-145598095D01*
X107270476Y-146407619D01*
X106841904Y-146312380D02*
X106794285Y-146360000D01*
X106699047Y-146407619D01*
X106460952Y-146407619D01*
X106365714Y-146360000D01*
X106318095Y-146312380D01*
X106270476Y-146217142D01*
X106270476Y-146121904D01*
X106318095Y-145979047D01*
X106889523Y-145407619D01*
X106270476Y-145407619D01*
%TO.C,U1*%
X116687380Y-55136904D02*
X117496904Y-55136904D01*
X117592142Y-55089285D01*
X117639761Y-55041666D01*
X117687380Y-54946428D01*
X117687380Y-54755952D01*
X117639761Y-54660714D01*
X117592142Y-54613095D01*
X117496904Y-54565476D01*
X116687380Y-54565476D01*
X117687380Y-53565476D02*
X117687380Y-54136904D01*
X117687380Y-53851190D02*
X116687380Y-53851190D01*
X116830238Y-53946428D01*
X116925476Y-54041666D01*
X116973095Y-54136904D01*
%TO.C,D1*%
X99231904Y-75452380D02*
X99231904Y-74452380D01*
X99470000Y-74452380D01*
X99612857Y-74500000D01*
X99708095Y-74595238D01*
X99755714Y-74690476D01*
X99803333Y-74880952D01*
X99803333Y-75023809D01*
X99755714Y-75214285D01*
X99708095Y-75309523D01*
X99612857Y-75404761D01*
X99470000Y-75452380D01*
X99231904Y-75452380D01*
X100755714Y-75452380D02*
X100184285Y-75452380D01*
X100470000Y-75452380D02*
X100470000Y-74452380D01*
X100374761Y-74595238D01*
X100279523Y-74690476D01*
X100184285Y-74738095D01*
%TO.C,R2*%
X94293333Y-82082380D02*
X93960000Y-81606190D01*
X93721904Y-82082380D02*
X93721904Y-81082380D01*
X94102857Y-81082380D01*
X94198095Y-81130000D01*
X94245714Y-81177619D01*
X94293333Y-81272857D01*
X94293333Y-81415714D01*
X94245714Y-81510952D01*
X94198095Y-81558571D01*
X94102857Y-81606190D01*
X93721904Y-81606190D01*
X94674285Y-81177619D02*
X94721904Y-81130000D01*
X94817142Y-81082380D01*
X95055238Y-81082380D01*
X95150476Y-81130000D01*
X95198095Y-81177619D01*
X95245714Y-81272857D01*
X95245714Y-81368095D01*
X95198095Y-81510952D01*
X94626666Y-82082380D01*
X95245714Y-82082380D01*
%TO.C,R3*%
X94293333Y-87082380D02*
X93960000Y-86606190D01*
X93721904Y-87082380D02*
X93721904Y-86082380D01*
X94102857Y-86082380D01*
X94198095Y-86130000D01*
X94245714Y-86177619D01*
X94293333Y-86272857D01*
X94293333Y-86415714D01*
X94245714Y-86510952D01*
X94198095Y-86558571D01*
X94102857Y-86606190D01*
X93721904Y-86606190D01*
X94626666Y-86082380D02*
X95245714Y-86082380D01*
X94912380Y-86463333D01*
X95055238Y-86463333D01*
X95150476Y-86510952D01*
X95198095Y-86558571D01*
X95245714Y-86653809D01*
X95245714Y-86891904D01*
X95198095Y-86987142D01*
X95150476Y-87034761D01*
X95055238Y-87082380D01*
X94769523Y-87082380D01*
X94674285Y-87034761D01*
X94626666Y-86987142D01*
%TO.C,D4*%
X99231904Y-91952380D02*
X99231904Y-90952380D01*
X99470000Y-90952380D01*
X99612857Y-91000000D01*
X99708095Y-91095238D01*
X99755714Y-91190476D01*
X99803333Y-91380952D01*
X99803333Y-91523809D01*
X99755714Y-91714285D01*
X99708095Y-91809523D01*
X99612857Y-91904761D01*
X99470000Y-91952380D01*
X99231904Y-91952380D01*
X100660476Y-91285714D02*
X100660476Y-91952380D01*
X100422380Y-90904761D02*
X100184285Y-91619047D01*
X100803333Y-91619047D01*
%TO.C,D3*%
X99231904Y-86952380D02*
X99231904Y-85952380D01*
X99470000Y-85952380D01*
X99612857Y-86000000D01*
X99708095Y-86095238D01*
X99755714Y-86190476D01*
X99803333Y-86380952D01*
X99803333Y-86523809D01*
X99755714Y-86714285D01*
X99708095Y-86809523D01*
X99612857Y-86904761D01*
X99470000Y-86952380D01*
X99231904Y-86952380D01*
X100136666Y-85952380D02*
X100755714Y-85952380D01*
X100422380Y-86333333D01*
X100565238Y-86333333D01*
X100660476Y-86380952D01*
X100708095Y-86428571D01*
X100755714Y-86523809D01*
X100755714Y-86761904D01*
X100708095Y-86857142D01*
X100660476Y-86904761D01*
X100565238Y-86952380D01*
X100279523Y-86952380D01*
X100184285Y-86904761D01*
X100136666Y-86857142D01*
%TO.C,R1*%
X94293333Y-77082380D02*
X93960000Y-76606190D01*
X93721904Y-77082380D02*
X93721904Y-76082380D01*
X94102857Y-76082380D01*
X94198095Y-76130000D01*
X94245714Y-76177619D01*
X94293333Y-76272857D01*
X94293333Y-76415714D01*
X94245714Y-76510952D01*
X94198095Y-76558571D01*
X94102857Y-76606190D01*
X93721904Y-76606190D01*
X95245714Y-77082380D02*
X94674285Y-77082380D01*
X94960000Y-77082380D02*
X94960000Y-76082380D01*
X94864761Y-76225238D01*
X94769523Y-76320476D01*
X94674285Y-76368095D01*
%TO.C,D2*%
X99261904Y-81952380D02*
X99261904Y-80952380D01*
X99500000Y-80952380D01*
X99642857Y-81000000D01*
X99738095Y-81095238D01*
X99785714Y-81190476D01*
X99833333Y-81380952D01*
X99833333Y-81523809D01*
X99785714Y-81714285D01*
X99738095Y-81809523D01*
X99642857Y-81904761D01*
X99500000Y-81952380D01*
X99261904Y-81952380D01*
X100214285Y-81047619D02*
X100261904Y-81000000D01*
X100357142Y-80952380D01*
X100595238Y-80952380D01*
X100690476Y-81000000D01*
X100738095Y-81047619D01*
X100785714Y-81142857D01*
X100785714Y-81238095D01*
X100738095Y-81380952D01*
X100166666Y-81952380D01*
X100785714Y-81952380D01*
%TO.C,R4*%
X94293333Y-92082380D02*
X93960000Y-91606190D01*
X93721904Y-92082380D02*
X93721904Y-91082380D01*
X94102857Y-91082380D01*
X94198095Y-91130000D01*
X94245714Y-91177619D01*
X94293333Y-91272857D01*
X94293333Y-91415714D01*
X94245714Y-91510952D01*
X94198095Y-91558571D01*
X94102857Y-91606190D01*
X93721904Y-91606190D01*
X95150476Y-91415714D02*
X95150476Y-92082380D01*
X94912380Y-91034761D02*
X94674285Y-91749047D01*
X95293333Y-91749047D01*
D11*
%TO.C,U2*%
X93110000Y-98760000D02*
X110890000Y-98760000D01*
X90460000Y-147130000D02*
X90460000Y-101410000D01*
X93110000Y-149780000D02*
X110890000Y-149780000D01*
X113540000Y-147130000D02*
X113540000Y-101410000D01*
X113540000Y-101410000D02*
G75*
G03*
X110890000Y-98760000I-2650000J0D01*
G01*
X90460000Y-147130000D02*
G75*
G03*
X93110000Y-149780000I2650000J0D01*
G01*
X110890000Y-149780000D02*
G75*
G03*
X113540000Y-147130000I0J2650000D01*
G01*
X93110000Y-98760000D02*
G75*
G03*
X90460000Y-101410000I0J-2650000D01*
G01*
D12*
%TO.C,U1*%
X106900000Y-45900000D02*
X106900000Y-49050000D01*
X97100000Y-45900000D02*
X106900000Y-45900000D01*
X110000000Y-50930000D02*
X110000000Y-51550000D01*
X98000000Y-66500000D02*
X98000000Y-64950000D01*
X90900000Y-52150000D02*
X94100000Y-52150000D01*
X96830000Y-49050000D02*
X97100000Y-49050000D01*
X110000000Y-51550000D02*
X114065000Y-51550000D01*
X114065000Y-62450000D02*
X110000000Y-62450000D01*
X106100000Y-66500000D02*
X98000000Y-66500000D01*
X98000000Y-64950000D02*
X96880000Y-64950000D01*
X94100000Y-63080000D02*
X94100000Y-61850000D01*
X110000000Y-62450000D02*
X110000000Y-63080000D01*
X114065000Y-51550000D02*
X114065000Y-62450000D01*
X106100000Y-64950000D02*
X106100000Y-66500000D01*
X94100000Y-52150000D02*
X94100000Y-50930000D01*
X94100000Y-61850000D02*
X90900000Y-61850000D01*
X97100000Y-49050000D02*
X97100000Y-45900000D01*
D11*
%TO.C,D1*%
X106565000Y-76545000D02*
X106565000Y-73455000D01*
X106565000Y-73455170D02*
G75*
G03*
X101015000Y-75000462I-2560000J-1544830D01*
G01*
X101015000Y-74999538D02*
G75*
G03*
X106565000Y-76544830I2990000J-462D01*
G01*
X106505000Y-75000000D02*
G75*
G03*
X106505000Y-75000000I-2500000J0D01*
G01*
%TO.C,R2*%
X98500000Y-84000000D02*
X97730000Y-84000000D01*
X91190000Y-85370000D02*
X97730000Y-85370000D01*
X90420000Y-84000000D02*
X91190000Y-84000000D01*
X97730000Y-85370000D02*
X97730000Y-82630000D01*
X97730000Y-82630000D02*
X91190000Y-82630000D01*
X91190000Y-82630000D02*
X91190000Y-85370000D01*
%TO.C,R3*%
X98500000Y-89000000D02*
X97730000Y-89000000D01*
X90420000Y-89000000D02*
X91190000Y-89000000D01*
X97730000Y-87630000D02*
X91190000Y-87630000D01*
X91190000Y-87630000D02*
X91190000Y-90370000D01*
X91190000Y-90370000D02*
X97730000Y-90370000D01*
X97730000Y-90370000D02*
X97730000Y-87630000D01*
%TO.C,D4*%
X106565000Y-96045000D02*
X106565000Y-92955000D01*
X106565000Y-92955170D02*
G75*
G03*
X101015000Y-94500462I-2560000J-1544830D01*
G01*
X101015000Y-94499538D02*
G75*
G03*
X106565000Y-96044830I2990000J-462D01*
G01*
X106505000Y-94500000D02*
G75*
G03*
X106505000Y-94500000I-2500000J0D01*
G01*
%TO.C,D3*%
X106565000Y-89545000D02*
X106565000Y-86455000D01*
X101015000Y-87999538D02*
G75*
G03*
X106565000Y-89544830I2990000J-462D01*
G01*
X106565000Y-86455170D02*
G75*
G03*
X101015000Y-88000462I-2560000J-1544830D01*
G01*
X106505000Y-88000000D02*
G75*
G03*
X106505000Y-88000000I-2500000J0D01*
G01*
%TO.C,R1*%
X97730000Y-80370000D02*
X97730000Y-77630000D01*
X97730000Y-77630000D02*
X91190000Y-77630000D01*
X98500000Y-79000000D02*
X97730000Y-79000000D01*
X91190000Y-80370000D02*
X97730000Y-80370000D01*
X91190000Y-77630000D02*
X91190000Y-80370000D01*
X90420000Y-79000000D02*
X91190000Y-79000000D01*
%TO.C,D2*%
X106565000Y-83045000D02*
X106565000Y-79955000D01*
X106565000Y-79955170D02*
G75*
G03*
X101015000Y-81500462I-2560000J-1544830D01*
G01*
X101015000Y-81499538D02*
G75*
G03*
X106565000Y-83044830I2990000J-462D01*
G01*
X106505000Y-81500000D02*
G75*
G03*
X106505000Y-81500000I-2500000J0D01*
G01*
%TO.C,R4*%
X91190000Y-95370000D02*
X97730000Y-95370000D01*
X97730000Y-95370000D02*
X97730000Y-92630000D01*
X98500000Y-94000000D02*
X97730000Y-94000000D01*
X90420000Y-94000000D02*
X91190000Y-94000000D01*
X97730000Y-92630000D02*
X91190000Y-92630000D01*
X91190000Y-92630000D02*
X91190000Y-95370000D01*
%TD*%
M02*
