%TF.GenerationSoftware,KiCad,Pcbnew,6.0.6+dfsg-1*%
%TF.CreationDate,2022-07-30T00:05:31-07:00*%
%TF.ProjectId,board,626f6172-642e-46b6-9963-61645f706362,rev?*%
%TF.SameCoordinates,Original*%
%TF.FileFunction,Soldermask,Top*%
%TF.FilePolarity,Negative*%
%FSLAX46Y46*%
G04 Gerber Fmt 4.6, Leading zero omitted, Abs format (unit mm)*
G04 Created by KiCad (PCBNEW 6.0.6+dfsg-1) date 2022-07-30 00:05:31*
%MOMM*%
%LPD*%
G01*
G04 APERTURE LIST*
%ADD10C,4.400000*%
%ADD11C,1.600000*%
%ADD12C,1.778000*%
%ADD13C,2.100000*%
%ADD14R,1.800000X1.800000*%
%ADD15C,1.800000*%
%ADD16O,1.600000X1.600000*%
G04 APERTURE END LIST*
D10*
%TO.C,REF1*%
X94000000Y-73000000D03*
%TD*%
%TO.C,REF2*%
X112000000Y-90000000D03*
%TD*%
D11*
%TO.C,U2*%
X112160000Y-143320000D03*
X112160000Y-140780000D03*
X112160000Y-138240000D03*
X112160000Y-135700000D03*
X112160000Y-133160000D03*
X112160000Y-130620000D03*
X112160000Y-128080000D03*
X112160000Y-125540000D03*
X112160000Y-123000000D03*
X112160000Y-120460000D03*
X112160000Y-117920000D03*
X112160000Y-115380000D03*
X112160000Y-112840000D03*
X112160000Y-110300000D03*
X112160000Y-107760000D03*
X112160000Y-105220000D03*
X91840000Y-105220000D03*
X91840000Y-107760000D03*
X91840000Y-110300000D03*
X91840000Y-112840000D03*
X91840000Y-115380000D03*
X91840000Y-117920000D03*
X91840000Y-120460000D03*
X91840000Y-123000000D03*
X91840000Y-125540000D03*
X91840000Y-128080000D03*
X91840000Y-130620000D03*
X91840000Y-133160000D03*
%TD*%
D12*
%TO.C,U1*%
X112250000Y-53750000D03*
X112250000Y-60250000D03*
X107750000Y-53750000D03*
X107750000Y-60250000D03*
X93270000Y-54500000D03*
X93270000Y-57000000D03*
X93270000Y-59500000D03*
D13*
X107000000Y-50675000D03*
X97000000Y-50675000D03*
X97000000Y-63325000D03*
X107000000Y-63325000D03*
D12*
X104500000Y-48270000D03*
X102000000Y-48270000D03*
X99500000Y-48270000D03*
%TD*%
D14*
%TO.C,D1*%
X105275000Y-75000000D03*
D15*
X102735000Y-75000000D03*
%TD*%
D11*
%TO.C,R2*%
X89380000Y-84000000D03*
D16*
X99540000Y-84000000D03*
%TD*%
D11*
%TO.C,R3*%
X89380000Y-89000000D03*
D16*
X99540000Y-89000000D03*
%TD*%
D14*
%TO.C,D4*%
X105275000Y-94500000D03*
D15*
X102735000Y-94500000D03*
%TD*%
D14*
%TO.C,D3*%
X105275000Y-88000000D03*
D15*
X102735000Y-88000000D03*
%TD*%
D11*
%TO.C,R1*%
X89380000Y-79000000D03*
D16*
X99540000Y-79000000D03*
%TD*%
D14*
%TO.C,D2*%
X105275000Y-81500000D03*
D15*
X102735000Y-81500000D03*
%TD*%
D11*
%TO.C,R4*%
X89380000Y-94000000D03*
D16*
X99540000Y-94000000D03*
%TD*%
M02*
