%TF.GenerationSoftware,KiCad,Pcbnew,6.0.6+dfsg-1*%
%TF.CreationDate,2022-07-30T00:05:30-07:00*%
%TF.ProjectId,board,626f6172-642e-46b6-9963-61645f706362,rev?*%
%TF.SameCoordinates,Original*%
%TF.FileFunction,Copper,L1,Top*%
%TF.FilePolarity,Positive*%
%FSLAX46Y46*%
G04 Gerber Fmt 4.6, Leading zero omitted, Abs format (unit mm)*
G04 Created by KiCad (PCBNEW 6.0.6+dfsg-1) date 2022-07-30 00:05:30*
%MOMM*%
%LPD*%
G01*
G04 APERTURE LIST*
%TA.AperFunction,ComponentPad*%
%ADD10C,4.400000*%
%TD*%
%TA.AperFunction,ComponentPad*%
%ADD11C,1.600000*%
%TD*%
%TA.AperFunction,ComponentPad*%
%ADD12C,1.778000*%
%TD*%
%TA.AperFunction,ComponentPad*%
%ADD13C,2.100000*%
%TD*%
%TA.AperFunction,ComponentPad*%
%ADD14R,1.800000X1.800000*%
%TD*%
%TA.AperFunction,ComponentPad*%
%ADD15C,1.800000*%
%TD*%
%TA.AperFunction,ComponentPad*%
%ADD16O,1.600000X1.600000*%
%TD*%
%TA.AperFunction,Conductor*%
%ADD17C,0.250000*%
%TD*%
G04 APERTURE END LIST*
D10*
%TO.P,REF1,1*%
%TO.N,N/C*%
X94000000Y-73000000D03*
%TD*%
%TO.P,REF2,1*%
%TO.N,N/C*%
X112000000Y-90000000D03*
%TD*%
D11*
%TO.P,U2,1,RST*%
%TO.N,unconnected-(U2-Pad1)*%
X112160000Y-143320000D03*
%TO.P,U2,2,3V3*%
%TO.N,Net-(U1-PadH1)*%
X112160000Y-140780000D03*
%TO.P,U2,3,3V3*%
%TO.N,unconnected-(U2-Pad3)*%
X112160000Y-138240000D03*
%TO.P,U2,4,GND*%
%TO.N,Net-(D1-Pad1)*%
X112160000Y-135700000D03*
%TO.P,U2,5,A0*%
%TO.N,Net-(U1-PadH2)*%
X112160000Y-133160000D03*
%TO.P,U2,6,A1*%
%TO.N,Net-(U1-PadV2)*%
X112160000Y-130620000D03*
%TO.P,U2,7,A2*%
%TO.N,unconnected-(U2-Pad7)*%
X112160000Y-128080000D03*
%TO.P,U2,8,A3*%
%TO.N,unconnected-(U2-Pad8)*%
X112160000Y-125540000D03*
%TO.P,U2,9,A4*%
%TO.N,unconnected-(U2-Pad9)*%
X112160000Y-123000000D03*
%TO.P,U2,10,A5*%
%TO.N,unconnected-(U2-Pad10)*%
X112160000Y-120460000D03*
%TO.P,U2,11,SCK*%
%TO.N,unconnected-(U2-Pad11)*%
X112160000Y-117920000D03*
%TO.P,U2,12,MOSI*%
%TO.N,unconnected-(U2-Pad12)*%
X112160000Y-115380000D03*
%TO.P,U2,13,MISO*%
%TO.N,unconnected-(U2-Pad13)*%
X112160000Y-112840000D03*
%TO.P,U2,14,RXD*%
%TO.N,unconnected-(U2-Pad14)*%
X112160000Y-110300000D03*
%TO.P,U2,15,TXD*%
%TO.N,unconnected-(U2-Pad15)*%
X112160000Y-107760000D03*
%TO.P,U2,16,DFU*%
%TO.N,unconnected-(U2-Pad16)*%
X112160000Y-105220000D03*
%TO.P,U2,17,SDA*%
%TO.N,unconnected-(U2-Pad17)*%
X91840000Y-105220000D03*
%TO.P,U2,18,SCL*%
%TO.N,unconnected-(U2-Pad18)*%
X91840000Y-107760000D03*
%TO.P,U2,19,D27*%
%TO.N,Net-(U1-PadB1A)*%
X91840000Y-110300000D03*
%TO.P,U2,20,D30*%
%TO.N,unconnected-(U2-Pad20)*%
X91840000Y-112840000D03*
%TO.P,U2,21,D31*%
%TO.N,unconnected-(U2-Pad21)*%
X91840000Y-115380000D03*
%TO.P,U2,22,D11*%
%TO.N,Net-(U2-Pad22)*%
X91840000Y-117920000D03*
%TO.P,U2,23,D7*%
%TO.N,Net-(R3-Pad1)*%
X91840000Y-120460000D03*
%TO.P,U2,24,D15*%
%TO.N,Net-(R2-Pad1)*%
X91840000Y-123000000D03*
%TO.P,U2,25,D16*%
%TO.N,Net-(R1-Pad1)*%
X91840000Y-125540000D03*
%TO.P,U2,26,USB*%
%TO.N,unconnected-(U2-Pad26)*%
X91840000Y-128080000D03*
%TO.P,U2,27,EN*%
%TO.N,unconnected-(U2-Pad27)*%
X91840000Y-130620000D03*
%TO.P,U2,28,VBAT*%
%TO.N,unconnected-(U2-Pad28)*%
X91840000Y-133160000D03*
%TD*%
D12*
%TO.P,U1,B1A,SEL+*%
%TO.N,Net-(U1-PadB1A)*%
X112250000Y-53750000D03*
%TO.P,U1,B1B*%
%TO.N,N/C*%
X112250000Y-60250000D03*
%TO.P,U1,B2A,SEL-*%
%TO.N,Net-(D1-Pad1)*%
X107750000Y-53750000D03*
%TO.P,U1,B2B*%
%TO.N,N/C*%
X107750000Y-60250000D03*
%TO.P,U1,H1,H+*%
%TO.N,Net-(U1-PadH1)*%
X93270000Y-54500000D03*
%TO.P,U1,H2,H*%
%TO.N,Net-(U1-PadH2)*%
X93270000Y-57000000D03*
%TO.P,U1,H3,H-*%
%TO.N,Net-(D1-Pad1)*%
X93270000Y-59500000D03*
D13*
%TO.P,U1,S1*%
%TO.N,N/C*%
X107000000Y-50675000D03*
%TO.P,U1,S2*%
X97000000Y-50675000D03*
%TO.P,U1,S3*%
X97000000Y-63325000D03*
%TO.P,U1,S4*%
X107000000Y-63325000D03*
D12*
%TO.P,U1,V1,V+*%
%TO.N,Net-(U1-PadH1)*%
X104500000Y-48270000D03*
%TO.P,U1,V2,V*%
%TO.N,Net-(U1-PadV2)*%
X102000000Y-48270000D03*
%TO.P,U1,V3,V-*%
%TO.N,Net-(D1-Pad1)*%
X99500000Y-48270000D03*
%TD*%
D14*
%TO.P,D1,1,K*%
%TO.N,Net-(D1-Pad1)*%
X105275000Y-75000000D03*
D15*
%TO.P,D1,2,A*%
%TO.N,Net-(D1-Pad2)*%
X102735000Y-75000000D03*
%TD*%
D11*
%TO.P,R2,1*%
%TO.N,Net-(R2-Pad1)*%
X89380000Y-84000000D03*
D16*
%TO.P,R2,2*%
%TO.N,Net-(D2-Pad2)*%
X99540000Y-84000000D03*
%TD*%
D11*
%TO.P,R3,1*%
%TO.N,Net-(R3-Pad1)*%
X89380000Y-89000000D03*
D16*
%TO.P,R3,2*%
%TO.N,Net-(D3-Pad2)*%
X99540000Y-89000000D03*
%TD*%
D14*
%TO.P,D4,1,K*%
%TO.N,Net-(D1-Pad1)*%
X105275000Y-94500000D03*
D15*
%TO.P,D4,2,A*%
%TO.N,Net-(D4-Pad2)*%
X102735000Y-94500000D03*
%TD*%
D14*
%TO.P,D3,1,K*%
%TO.N,Net-(D1-Pad1)*%
X105275000Y-88000000D03*
D15*
%TO.P,D3,2,A*%
%TO.N,Net-(D3-Pad2)*%
X102735000Y-88000000D03*
%TD*%
D11*
%TO.P,R1,1*%
%TO.N,Net-(R1-Pad1)*%
X89380000Y-79000000D03*
D16*
%TO.P,R1,2*%
%TO.N,Net-(D1-Pad2)*%
X99540000Y-79000000D03*
%TD*%
D14*
%TO.P,D2,1,K*%
%TO.N,Net-(D1-Pad1)*%
X105275000Y-81500000D03*
D15*
%TO.P,D2,2,A*%
%TO.N,Net-(D2-Pad2)*%
X102735000Y-81500000D03*
%TD*%
D11*
%TO.P,R4,1*%
%TO.N,Net-(U2-Pad22)*%
X89380000Y-94000000D03*
D16*
%TO.P,R4,2*%
%TO.N,Net-(D4-Pad2)*%
X99540000Y-94000000D03*
%TD*%
D17*
%TO.N,Net-(U1-PadH1)*%
X104500000Y-48270000D02*
X102230000Y-46000000D01*
X102230000Y-46000000D02*
X96000000Y-46000000D01*
X96000000Y-46000000D02*
X93270000Y-48730000D01*
X93270000Y-48730000D02*
X93270000Y-54500000D01*
%TO.N,Net-(D4-Pad2)*%
X99540000Y-94000000D02*
X102235000Y-94000000D01*
X102235000Y-94000000D02*
X102735000Y-94500000D01*
%TO.N,Net-(D3-Pad2)*%
X99540000Y-89000000D02*
X101735000Y-89000000D01*
X101735000Y-89000000D02*
X102735000Y-88000000D01*
%TO.N,Net-(D2-Pad2)*%
X99540000Y-84000000D02*
X102040000Y-81500000D01*
X102040000Y-81500000D02*
X102735000Y-81500000D01*
%TO.N,Net-(D1-Pad2)*%
X99540000Y-79000000D02*
X102735000Y-75805000D01*
X102735000Y-75805000D02*
X102735000Y-75000000D01*
%TO.N,Net-(R3-Pad1)*%
X91840000Y-120460000D02*
X92540000Y-120460000D01*
X92540000Y-120460000D02*
X94000000Y-119000000D01*
X94000000Y-119000000D02*
X94000000Y-90736396D01*
X94000000Y-90736396D02*
X92263604Y-89000000D01*
X92263604Y-89000000D02*
X89380000Y-89000000D01*
%TO.N,Net-(R1-Pad1)*%
X89380000Y-79000000D02*
X90170000Y-79000000D01*
X90170000Y-79000000D02*
X92075000Y-80905000D01*
X92075000Y-80905000D02*
X92075000Y-87538604D01*
X92075000Y-87538604D02*
X94900000Y-90363604D01*
X94900000Y-90363604D02*
X94900000Y-122480000D01*
X94900000Y-122480000D02*
X91840000Y-125540000D01*
%TO.N,Net-(R2-Pad1)*%
X89380000Y-84000000D02*
X90805000Y-85425000D01*
X90805000Y-85425000D02*
X90805000Y-86905000D01*
X90805000Y-86905000D02*
X94450000Y-90550000D01*
X94450000Y-90550000D02*
X94450000Y-120390000D01*
X94450000Y-120390000D02*
X91840000Y-123000000D01*
%TO.N,Net-(U2-Pad22)*%
X91840000Y-117920000D02*
X89000000Y-115080000D01*
X89000000Y-115080000D02*
X89000000Y-94380000D01*
X89000000Y-94380000D02*
X89380000Y-94000000D01*
%TO.N,Net-(D1-Pad1)*%
X105000000Y-79000000D02*
X105000000Y-69380456D01*
X105000000Y-69380456D02*
X95119544Y-59500000D01*
X95119544Y-59500000D02*
X93270000Y-59500000D01*
X105000000Y-128540000D02*
X105000000Y-94000000D01*
X112160000Y-135700000D02*
X105000000Y-128540000D01*
X105000000Y-89000000D02*
X105000000Y-94000000D01*
X105000000Y-84000000D02*
X105000000Y-89000000D01*
X105000000Y-79000000D02*
X105000000Y-84000000D01*
X99500000Y-48270000D02*
X99500000Y-53270000D01*
X99500000Y-53270000D02*
X93270000Y-59500000D01*
X107750000Y-53750000D02*
X104980000Y-53750000D01*
X104980000Y-53750000D02*
X99500000Y-48270000D01*
%TD*%
M02*
