M48
; DRILL file {KiCad 6.0.6+dfsg-1} date Sat 30 Jul 2022 12:05:27 AM PDT
; FORMAT={-:-/ absolute / inch / decimal}
; #@! TF.CreationDate,2022-07-30T00:05:27-07:00
; #@! TF.GenerationSoftware,Kicad,Pcbnew,6.0.6+dfsg-1
; #@! TF.FileFunction,Plated,1,2,PTH
FMAT,2
INCH
; #@! TA.AperFunction,Plated,PTH,ComponentDrill
T1C0.0315
; #@! TA.AperFunction,Plated,PTH,ComponentDrill
T2C0.0350
; #@! TA.AperFunction,Plated,PTH,ComponentDrill
T3C0.0354
; #@! TA.AperFunction,Plated,PTH,ComponentDrill
T4C0.0433
; #@! TA.AperFunction,Plated,PTH,ComponentDrill
T5C0.0866
%
G90
G05
T1
X3.5189Y-3.1102
X3.5189Y-3.3071
X3.5189Y-3.5039
X3.5189Y-3.7008
X3.6157Y-4.1425
X3.6157Y-4.2425
X3.6157Y-4.3425
X3.6157Y-4.4425
X3.6157Y-4.5425
X3.6157Y-4.6425
X3.6157Y-4.7425
X3.6157Y-4.8425
X3.6157Y-4.9425
X3.6157Y-5.0425
X3.6157Y-5.1425
X3.6157Y-5.2425
X3.9189Y-3.1102
X3.9189Y-3.3071
X3.9189Y-3.5039
X3.9189Y-3.7008
X4.4157Y-4.1425
X4.4157Y-4.2425
X4.4157Y-4.3425
X4.4157Y-4.4425
X4.4157Y-4.5425
X4.4157Y-4.6425
X4.4157Y-4.7425
X4.4157Y-4.8425
X4.4157Y-4.9425
X4.4157Y-5.0425
X4.4157Y-5.1425
X4.4157Y-5.2425
X4.4157Y-5.3425
X4.4157Y-5.4425
X4.4157Y-5.5425
X4.4157Y-5.6425
T2
X3.672Y-2.1457
X3.672Y-2.2441
X3.672Y-2.3425
X3.9173Y-1.9004
X4.0157Y-1.9004
X4.1142Y-1.9004
T3
X4.0447Y-2.9528
X4.0447Y-3.2087
X4.0447Y-3.4646
X4.0447Y-3.7205
X4.1447Y-2.9528
X4.1447Y-3.2087
X4.1447Y-3.4646
X4.1447Y-3.7205
X4.2421Y-2.1161
X4.2421Y-2.372
X4.4193Y-2.1161
X4.4193Y-2.372
T4
X3.8189Y-1.9951
X3.8189Y-2.4931
X4.2126Y-1.9951
X4.2126Y-2.4931
T5
X3.7008Y-2.874
X4.4094Y-3.5433
T0
M30
